<svg xmlns:svg="http://www.w3.org/2000/svg" xmlns="http://www.w3.org/2000/svg" width="256" height="256" viewBox="0 0 256 256" overflow="visible" version="1.1">
<style>
.s0{fill:#efefef;}
.s1{fill:#bcbcbc;}
</style>
<g transform="matrix(1.4284463,0,0,1.4284463,-36.465289,-119.69974)">
    <path d="m85 255.4-47.4-129.7 130.1-34.8 23.7 136-49.3 29z" fill="#e44d26"/>
    <path d="m139.1 244.6 39.9-23.5-20.2-116.2-53.2 14.2z" fill="#f16529"/>
    <path d="m229.7 158 6.1 20.9-46.4 13.1c0 0 0 27.9-22.5 39-22.5 11.1-40 1.7-40 1.7l-2.8-8.1 33.4-9.1 7.4-28.6-21.5-21.2-30.9 9.4-2.7-7.3c0 0 14.5-32 57.2-13.8 0 0 13.5 8.4 16.5 15.8l46.4-11.8zm6.1-1.6 7.4-2.1 6 21.3-7.7 2.3z" fill="#efefef"/>
    <path d="m238.3 155.5 4.8-1.2 6 21.3-7.7 2.3-2-7.1 3.1-1.2zm-13.8 3.8 5.1-1.3 6.1 20.9-46.4 13.1c0 0-0.5 24.4-16.7 35.4-16.1 11-34.3 10.7-45.9 5.3l-1.3-3.7c0 0 31.6 7.4 47.2-16.3 9.4-15.6 9.3-26.9 9.3-26.9l46.6-12.6-3.9-13.8zm-115 8.5 27.2-7.9 6.4 5.9-30.9 9.4z" fill="#bcbcbc"/>
    <path d="m13.5 182.5 5.5 21 46.6-12.5c0 0 14.3 24 39.3 22 25-2 35.3-19 35.3-19l-1.7-8.4-33.4 9.3-21-20.8 7.7-29.2 31.4-7.8-1.5-7.7c0 0-28.8-20.1-56.2 17.4 0 0-7.3 14.1-6.1 22l-45.9 13.6zm-6 1.8-7.4 2 5.8 21.3 7.9-1.9z" fill="#efefef"/>
    <path d="m4.8 184.8-4.7 1.4 5.8 21.3 7.9-1.9-1.9-7.2-3.3 0.5zm13.8-3.8-5.1 1.5 5.5 21 46.6-12.5c0 0 12.9 20.7 32.4 21.9 19.5 1.2 34.9-8.4 42.2-18.9l-0.8-3.9c0 0-23.3 22.5-48.9 10.2-16.1-8.6-21.7-18.4-21.7-18.4l-46.5 13-3.7-13.9zm103.1-51.6-27.4 7.1-2.5 8.3 31.4-7.8z" fill="#bcbcbc"/>
  </g>
</svg>
