<?xml version="1.0" encoding="UTF-8" standalone="no"?>
<svg
   xmlns:dc="http://purl.org/dc/elements/1.1/"
   xmlns:cc="http://creativecommons.org/ns#"
   xmlns:rdf="http://www.w3.org/1999/02/22-rdf-syntax-ns#"
   xmlns:svg="http://www.w3.org/2000/svg"
   xmlns="http://www.w3.org/2000/svg"
   xmlns:sodipodi="http://sodipodi.sourceforge.net/DTD/sodipodi-0.dtd"
   xmlns:inkscape="http://www.inkscape.org/namespaces/inkscape"
   width="256"
   height="256"
   viewBox="0 0 255.99999 256.00001"
   overflow="visible"
   id="svg2"
   version="1.1"
   inkscape:version="0.48.4 r9939"
   sodipodi:docname="icon.svg"
   style="overflow:visible"
   inkscape:export-xdpi="45"
   inkscape:export-ydpi="45">
  <metadata
     id="metadata20">
    <rdf:RDF>
      <cc:Work
         rdf:about="">
        <dc:format>image/svg+xml</dc:format>
        <dc:type
           rdf:resource="http://purl.org/dc/dcmitype/StillImage" />
        <dc:title></dc:title>
      </cc:Work>
    </rdf:RDF>
  </metadata>
  <defs
     id="defs18" />
  <sodipodi:namedview
     pagecolor="#ffffff"
     bordercolor="#666666"
     borderopacity="1"
     objecttolerance="10"
     gridtolerance="10"
     guidetolerance="10"
     inkscape:pageopacity="0"
     inkscape:pageshadow="2"
     inkscape:window-width="1877"
     inkscape:window-height="1056"
     id="namedview16"
     showgrid="false"
     inkscape:zoom="1.1881538"
     inkscape:cx="24.407616"
     inkscape:cy="82.595497"
     inkscape:window-x="43"
     inkscape:window-y="24"
     inkscape:window-maximized="1"
     inkscape:current-layer="svg2" />
  <g
     id="g2997"
     transform="matrix(1.4284463,0,0,1.4284463,-36.465289,-119.69974)">
    <path
       style="fill:#e44d26"
       inkscape:connector-curvature="0"
       id="path4"
       d="m 85.003,255.37201 -47.391,-129.659 130.145,-34.813001 23.674,135.994001 -49.344,29.016 z" />
    <path
       style="fill:#f16529"
       inkscape:connector-curvature="0"
       id="path6"
       d="m 139.144,244.60501 39.867,-23.457 -20.236,-116.216 -53.189,14.229 z" />
    <path
       style="fill:#efefef"
       inkscape:connector-curvature="0"
       id="path8"
       d="m 229.654,157.97901 6.064,20.864 -46.424,13.117 c 0,0 0,27.922 -22.529,39.022 -22.527,11.101 -40.027,1.688 -40.027,1.688 l -2.802,-8.074 33.417,-9.086 7.396,-28.6 -21.529,-21.176 -30.948,9.36 -2.687,-7.345 c 0,0 14.46,-31.959 57.186,-13.782 0,0 13.463,8.401 16.482,15.81 l 46.401,-11.798 z m 6.064,-1.567 7.397,-2.131 5.951,21.306 -7.742,2.348 z" />
    <path
       style="fill:#bcbcbc"
       inkscape:connector-curvature="0"
       id="path10"
       d="m 238.324,155.47101 4.791,-1.19 5.951,21.306 -7.742,2.348 -2.028,-7.134 3.09,-1.209 z m -13.789,3.813 5.119,-1.305 6.064,20.864 -46.424,13.117 c 0,0 -0.5,24.363 -16.656,35.395 -16.129,11.023 -34.307,10.691 -45.906,5.316 l -1.293,-3.723 c 0,0 31.568,7.422 47.199,-16.297 9.426,-15.637 9.26,-26.911 9.26,-26.911 l 46.584,-12.611 -3.947,-13.845 z m -114.956,8.452 27.249,-7.908 6.38,5.893 -30.942,9.36 z" />
    <path
       style="fill:#efefef"
       inkscape:connector-curvature="0"
       id="path12"
       d="m 13.516,182.52301 5.47,21.024 46.586,-12.477 c 0,0 14.294,23.98 39.336,21.983 25.049,-1.996 35.254,-19.034 35.254,-19.034 l -1.727,-8.368 -33.354,9.296 -20.993,-20.774 7.658,-29.228 31.384,-7.793 -1.453,-7.69 c 0,0 -28.772,-20.059 -56.188,17.416 0,0 -7.256,14.102 -6.072,22.01 l -45.901,13.635 z m -6.008,1.76 -7.448,1.951 5.791,21.344 7.857,-1.939 z" />
    <path
       style="fill:#bcbcbc"
       inkscape:connector-curvature="0"
       id="path14"
       d="m 4.789,184.80001 -4.729,1.434 5.791,21.344 7.857,-1.939 -1.901,-7.173 -3.288,0.545 z m 13.807,-3.775 -5.08,1.498 5.47,21.024 46.586,-12.477 c 0,0 12.905,20.666 32.426,21.882 19.502,1.203 34.941,-8.369 42.164,-18.933 l -0.787,-3.858 c 0,0 -23.334,22.535 -48.907,10.154 -16.098,-8.611 -21.716,-18.395 -21.716,-18.395 l -46.483,13.014 -3.673,-13.909 z m 103.081,-51.556 -27.448,7.14 -2.476,8.337 31.383,-7.793 z" />
  </g>
</svg>
